<svg id="Layer_1" data-name="Layer 1" xmlns="http://www.w3.org/2000/svg" viewBox="0 0 294.48 600"><defs><style>.cls-1,.cls-2{fill:#231f20;}.cls-2{stroke:#010101;stroke-miterlimit:10;stroke-width:4px;}</style></defs><title>blacklogo</title><polygon class="cls-1" points="33.93 231.91 22.49 227.02 54.34 152.44 148.27 190 242.36 152.38 271.87 226.77 260.31 231.36 235.4 168.56 148.27 203.4 61 168.5 33.93 231.91"/><polygon class="cls-1" points="147.6 392.45 113.09 363.58 126.91 282.15 56.17 264.55 59.17 252.47 141.1 272.86 126.55 358.63 147.76 376.37 169.31 359.05 154.78 272.85 237.39 252.47 240.37 264.55 168.96 282.17 182.8 364.17 147.6 392.45"/><polygon class="cls-1" points="272.29 321.88 261.21 316.22 282.04 275.5 282.04 243.96 266.75 243.96 266.75 231.52 294.48 231.52 294.48 278.5 272.29 321.88"/><polygon class="cls-1" points="23.15 322 0 279.08 0 231.52 28.62 231.52 28.62 243.96 12.44 243.96 12.44 275.94 34.1 316.1 23.15 322"/><rect class="cls-1" x="236" y="380.72" width="63.22" height="12.44" transform="translate(-302.99 153.21) rotate(-25.59)"/><rect class="cls-1" x="346.09" y="355.53" width="12.44" height="62.87" transform="translate(-311.26 536.34) rotate(-64.31)"/><polygon class="cls-1" points="98.76 425.1 24.76 366.49 32.48 356.73 99.33 409.68 147.65 376.92 196.83 409.69 262.86 356.76 270.64 366.46 197.51 425.09 147.71 391.91 98.76 425.1"/><path class="cls-2" d="M190.74,382.79" transform="translate(-162.12 -0.32)"/><rect class="cls-1" x="70.77" y="400.27" width="12.44" height="128.94"/><rect class="cls-1" x="212.3" y="400.27" width="12.44" height="127.02"/><path class="cls-1" d="M310.34,198.87A13,13,0,0,1,300,193.82L220,91.22l9.81-7.65,80,102.6a.72.72,0,0,0,.53.26.63.63,0,0,0,.52-.26L389.28,83.83l9.87,7.56-78.4,102.35a13,13,0,0,1-10.35,5.13Z" transform="translate(-162.12 -0.32)"/><path class="cls-1" d="M309.75,191.09a10,10,0,0,1-9.63-6.9L258.73,62.8l11.78-4,39.22,115,38-114.34,11.8,3.92L319.41,184.12a10,10,0,0,1-9.62,7Z" transform="translate(-162.12 -0.32)"/><polygon class="cls-1" points="166.94 52.73 166.32 12.44 127.81 12.71 128.43 52.27 115.98 52.46 115.17 0.27 178.57 0 179.38 52.53 166.94 52.73"/><polygon class="cls-1" points="110.14 61.64 97.7 61.64 97.7 26.03 115.72 9.47 124.14 18.64 110.14 31.5 110.14 61.64"/><polygon class="cls-1" points="197.45 61.38 185.01 61.38 185.01 31.74 167.78 16.53 176.2 7.37 197.45 26.28 197.45 61.38"/><polygon class="cls-1" points="174.72 45.93 146.99 38.26 120.8 45.92 119.06 39.95 146.94 31.8 176.38 39.94 174.72 45.93"/><polygon class="cls-1" points="174.58 36.3 147.24 26.36 120.91 36.3 118.95 30.39 147.24 19.82 176.52 30.39 174.58 36.3"/><path class="cls-1" d="M309.81,600.32l-68.78-53L184.52,433.83,183.85,107l96.52-60.92,29.47,1.25L340,46.54l94.39,60.52.67,326.77-57,113.54Zm-58.92-61.06,58.89,45.34,58.42-45.33,54.44-108.38-.65-317L336.54,59.08l-26.79.74-26-1.1-87.41,55.17.64,317Z" transform="translate(-162.12 -0.32)"/><rect class="cls-1" x="198.71" y="106.41" width="12.44" height="58.44" transform="translate(-202.61 122.68) rotate(-30.55)"/><rect class="cls-1" x="385.99" y="129.41" width="57.21" height="12.44" transform="translate(-64.01 435.51) rotate(-61.6)"/><rect class="cls-1" x="208.37" y="383.21" width="12.44" height="78.37" transform="translate(-379.19 226.79) rotate(-38.73)"/><rect class="cls-1" x="365.82" y="416.17" width="77.87" height="12.44" transform="translate(-339.68 478.24) rotate(-51.73)"/><rect class="cls-1" x="92.83" y="417.39" width="12.44" height="137.3"/><rect class="cls-1" x="290.01" y="480.15" width="137.31" height="12.44" transform="translate(-293.03 840.3) rotate(-89.48)"/><polygon class="cls-1" points="182.11 568.46 169.67 568.46 169.67 435.18 147.7 418.56 125.87 435.17 125.87 568.46 113.43 568.46 113.43 429 147.67 402.95 182.11 428.99 182.11 568.46"/><rect class="cls-1" x="141.46" y="410.76" width="12.44" height="181.38"/><polygon class="cls-1" points="171.05 284.65 238.88 268.94 238.88 284.65 171.05 284.65"/><polygon class="cls-1" points="125.64 284.65 57.81 268.94 57.81 284.65 125.64 284.65"/></svg>